<?xml version="1.0" encoding="utf-8"?>
<svg xmlns="http://www.w3.org/2000/svg" viewBox="222.616 263.498 1051.924 118.367" width="1051.92px" height="118.367px" xmlns:bx="https://boxy-svg.com" preserveAspectRatio="none"><defs><bx:export><bx:file format="svg" path="Sem título.svg"/><bx:file format="pdf" path="Sem título.pdf"><bx:page/></bx:file><bx:file format="png" path="Sem título.png"/></bx:export></defs><path fill="#FEFEFE" d="M733.287 274.822C739.884 274.058 755.997 274.449 763.349 274.454L821.422 274.571L814.702 291.813C798.682 291.983 782.639 291.768 766.617 291.756C758.471 291.75 749.813 291.173 741.749 292.263C738.609 292.687 734.285 293.549 731.982 295.912C727.623 300.385 728.095 308.426 728.115 314.221C728.138 320.74 727.012 331.411 732.196 336.302C739.275 342.98 787.835 340.406 800.257 340.343L800.334 325.091L780.188 325.097L766.525 325.046L766.55 309.878L821.363 309.895C821.434 326.115 821.413 342.334 821.3 358.553C802.543 358.36 782.032 358.781 763.99 358.627C734.231 358.358 704.789 363.418 705.529 322.927C705.984 298.059 702.025 279.713 733.287 274.822Z" style=""/><path fill="#FEFEFE" d="M322.026 274.54L342.529 274.523C342.718 283.51 343.354 355.698 341.767 358.45C334.863 358.471 327.96 358.45 321.056 358.385C295.378 340.221 268.637 317.871 243.012 298.777C244.407 311.898 243.557 343.908 243.554 358.395L222.719 358.393L222.616 274.568L245.83 274.621C252.369 278.578 261.783 286.62 268.133 291.406C285.923 304.814 303.751 320.419 321.937 333.171C321.753 313.628 321.783 294.083 322.026 274.54Z"/><path fill="#FEFEFE" d="M966.464 274.545C997.171 273.935 1031.46 274.185 1062.23 275.274C1076.06 275.764 1084.83 285.671 1085.13 299.696C1085.71 326.682 1074.73 329.937 1051.12 330.999C1062.53 339.806 1077.54 349.773 1089.63 358.386C1078.54 358.432 1067.44 358.326 1056.35 358.068C1048.6 353.243 1034.29 341.8 1026.47 335.938L1019.47 330.901L996.009 330.926L995.899 358.322L974.322 358.374L974.569 314.284C986.933 314.318 1053.78 316.554 1060.38 311.635C1062.14 310.322 1062.8 307.701 1063.05 305.616C1063.43 302.489 1063.4 297.09 1061.17 294.595C1056.26 289.099 990.02 292.159 977.525 291.09C973.536 286.118 969.889 279.988 966.464 274.545Z"/><path fill="#FEFEFE" d="M403.958 274.686C410.618 274.418 417.51 274.568 424.192 274.622C429.864 279.853 441.565 298.744 446.462 306.253L480.212 358.354C476.293 358.403 468.47 358.493 464.868 358.31C454.424 357.78 401.124 352.306 397.154 345.794L397.556 344.405C404.073 339.458 434.537 341.173 444.862 341.004L437.293 328.928C429.286 316.964 421.349 303.696 413.4 291.464C398.992 312.622 385.161 336.537 371.135 358.117C362.978 358.499 356.491 358.336 348.33 358.057C350.56 353.987 353.033 350.182 355.586 346.309C370.528 323.644 384.508 300.321 399.681 277.819C400.718 276.281 402.3 275.403 403.958 274.686Z"/><path fill="#FEFEFE" d="M887.657 274.675C894.435 274.345 900.994 274.545 907.767 274.687C913.519 279.317 928.063 301.171 932.892 308.042C944.734 324.732 956.486 341.487 968.148 358.304C960.518 358.352 952.632 358.554 945.046 357.911C941.025 353.739 932.674 341.577 929.142 336.528L902.624 298.217L897.007 290.932C890.408 301.442 857.927 350.673 851.839 355.975C846.566 360.567 833.914 358.366 827.296 358.032C836.247 345.414 879.703 279.601 887.657 274.675Z"/><path fill="#FEFEFE" d="M453.886 274.549L477.277 274.582C489.343 290.454 506.962 319.09 518.268 336.439C525.561 324.567 533.993 312.494 541.511 300.594C545.968 293.54 554.042 280.109 558.846 274.6L582.481 274.595C579.926 277.937 575.965 284.721 573.605 288.508C560.246 309.458 542.291 338.621 528.141 358.314C522.477 358.652 514.847 358.402 509.041 358.378C504.877 353.577 491.894 332.925 487.818 326.463C477.228 309.675 463.772 291.402 453.886 274.549Z"/><path fill="#FEFEFE" d="M1273.12 263.498L1274.54 263.575L1274.54 264.488C1257.06 286.729 1258.11 285.771 1233.38 299.981C1240.13 291.624 1243.35 289.42 1249.39 279.185L1249.13 278.56C1234.3 295.287 1223.3 302.852 1203.33 312.613C1197.38 311.601 1193.87 310.903 1188.24 308.764C1188.82 305.598 1190.07 301.882 1191.01 298.753C1200.95 291.172 1227.28 282.254 1239.56 279.253C1241.51 278.898 1243.2 278.392 1245.1 277.848C1244.69 277.691 1244.19 277.475 1243.74 277.495C1224 278.18 1206.97 284.093 1188.87 291.359C1179.45 295.139 1178.11 294.11 1170.36 301.35C1164.17 296.488 1153.15 294.868 1145 292.801C1171.98 277.48 1187.34 284.615 1217.17 278.699C1223.62 277.418 1233.35 272.084 1239.34 270.599C1250.16 267.918 1262.15 265.706 1273.12 263.498Z"/><path fill="#FEFEFE" d="M568.697 342.248C606.362 341.113 650.891 342.094 688.9 342.185C685.367 347.063 680.468 354.616 675.832 358.13C672.191 358.861 643.72 358.691 637.901 358.594C611.451 358.149 583.607 359.142 557.309 358.21C560.677 352.742 564.297 346.906 568.697 342.248Z"/><path fill="#FD6800" d="M587.262 310.535C596.938 310.035 609.461 310.375 619.279 310.384L679.101 310.517C676.155 315.794 671.508 322.834 668.232 328.094L576.103 327.996L587.262 310.535Z"/><path fill="#FEFEFE" d="M599.166 274.602C630.126 273.76 664.827 274.547 696.08 274.565C692.927 279.614 688.597 285.71 685.217 290.727C682.565 291.447 661.525 291.216 657.51 291.212L588.588 291.022C591.677 285.654 595.719 279.824 599.166 274.602Z"/><path fill="#FD6800" d="M1180.6 315.366C1184.24 315.809 1188.35 316.195 1191.88 317.03L1190.29 325.325C1157.72 343.743 1119.17 360.258 1085.66 378.386L1085.11 376.026C1115.73 356.046 1149.46 334.414 1180.6 315.366Z"/><path fill="#FEFEFE" d="M1243.8 300.062C1244.46 300.445 1244.16 300.194 1244.47 301.233C1223.08 331.428 1231.02 330.108 1199.45 346.586C1198.58 345.29 1203.7 332.718 1204.32 326.778C1217.84 318.972 1230.86 308.896 1243.8 300.062Z"/><path fill="#FD6800" d="M884.704 334.003C894.885 333.53 906.026 333.801 916.293 333.869C919.747 338.039 929.057 348.863 930.845 353.02L928.984 353.362C923.657 351.8 882.524 340.417 880.694 338.534C881.284 336.514 883.016 335.436 884.704 334.003Z"/><path fill="#FD6800" d="M1131.92 328.978C1136.64 326.155 1161.16 310.29 1165.06 311.208C1165.36 311.279 1165.45 311.326 1165.72 311.434C1165.53 317.039 1140.37 327.059 1134.54 330.235L1131.92 328.978Z"/><path fill="#FEFEFE" d="M1160.43 357.613C1165.69 353.57 1179.76 342.053 1185.45 341.483L1186.04 342.402C1184.42 347.541 1168.9 354.862 1163.08 358.83L1160.43 357.613Z"/><path fill="#9F4400" fill-opacity="0.97254902" d="M1131.92 328.978L1134.54 330.235C1128.34 333.756 1122.13 337.434 1115.19 339.106C1120.49 335.696 1126.32 331.74 1131.92 328.978Z"/><path fill="#D3D3D4" fill-opacity="0.98431373" d="M 1160.43 357.613 L 1163.08 358.83 C 1160.698 360.332 1157.76 362.165 1154.781 363.841 C 1153.422 364.072 1152.047 364.35 1150.698 364.586 C 1153.916 362.111 1157.294 359.567 1160.43 357.613 Z"/><path fill="#D3D3D4" fill-opacity="0.98431373" d="M 1146.48 367.83 C 1147.829 366.803 1149.247 365.702 1150.698 364.586 C 1152.048 364.35 1153.423 364.072 1154.781 363.841 C 1151.894 365.466 1148.97 366.944 1146.48 367.83 Z"/><path fill="#9F4400" fill-opacity="0.96862745" d="M1085.11 376.026L1085.66 378.386C1082.71 380.132 1081.61 380.837 1078.38 381.865L1077.64 381.448C1079.3 379.013 1082.49 377.531 1085.11 376.026Z"/></svg>